<svg width="39" height="26" viewBox="0 0 39 26" fill="none" xmlns="http://www.w3.org/2000/svg">
<g id="Subtract">
<path d="M24.9395 0.0347934L25.0268 0.00389722H24.9712L24.9395 0.0347934Z" fill="white"/>
<path fill-rule="evenodd" clip-rule="evenodd" d="M14.1874 0.00126267C14.1874 0.00126267 9.69448 -0.163517 4.84736 3.2717C4.84736 3.2717 0 11.3679 0 21.3493C0 21.3493 2.68672 25.83 10.0541 26C10.0541 26 11.1306 24.6274 12.2174 23.4198C8.07885 22.2146 6.4684 19.8042 6.4684 19.8042C6.4684 19.8042 6.82797 19.9741 7.36733 20.3192H7.52621C7.60344 20.3192 7.64082 20.3534 7.68017 20.3898L7.68731 20.3965V20.4119C7.71436 20.4382 7.73945 20.4626 7.7756 20.4768C7.79577 20.4847 7.81938 20.4892 7.84865 20.4892C16.6467 23.9656 24.0007 24.7692 32.3917 19.6239C32.3917 19.6239 30.7785 22.0343 26.468 23.2395C27.3566 24.4394 28.6048 25.8146 28.6048 25.8146C34.6433 25.6879 37.6569 22.657 38.6372 21.6709C38.7336 21.5739 38.8104 21.4966 38.8684 21.4439C38.9405 21.3785 38.9838 21.3507 39 21.3699C39 11.4041 34.1236 3.2923 34.1236 3.2923C29.7657 0.189274 25.6933 0.0501217 24.9237 0.0474871L24.4318 0.518833C29.9984 2.06388 32.6929 4.47689 32.6929 4.47689C19.1713 -2.00387 7.85111 3.39529 6.14596 4.20841C6.02102 4.26804 5.94773 4.30301 5.92879 4.30684C5.92879 4.30684 8.61821 1.72666 14.5497 0.348784L14.1874 0.00126267ZM28.9142 14.8058C28.9142 16.7113 27.3832 18.2566 25.5029 18.2566C23.6227 18.2566 22.0917 16.7113 22.0917 14.8211C22.0971 12.9156 23.6308 11.3756 25.5029 11.3756V11.3679C27.3911 11.3679 28.9142 12.913 28.9142 14.8058ZM13.291 18.2566C15.1712 18.2566 16.7022 16.7113 16.7022 14.8058C16.7022 12.913 15.1818 11.3679 13.3015 11.3679L13.291 11.3756C11.4107 11.3756 9.87968 12.9156 9.87968 14.8211C9.87968 16.7113 11.4107 18.2566 13.291 18.2566Z" fill="white"/>
</g>
</svg>
