<svg width="32" height="18" viewBox="0 0 32 18" fill="none" xmlns="http://www.w3.org/2000/svg">
<path fill-rule="evenodd" clip-rule="evenodd" d="M15.6563 17.9246H17.5691C17.5691 17.9246 18.1469 17.8621 18.4419 17.5486C18.7134 17.2607 18.7047 16.7201 18.7047 16.7201C18.7047 16.7201 18.6673 14.1895 19.8585 13.8168C21.0328 13.4498 22.5406 16.2627 24.1389 17.3442C25.3474 18.1628 26.2658 17.9833 26.2658 17.9833L30.5392 17.9246C30.5392 17.9246 32.7747 17.7889 31.7148 16.0558C31.6279 15.914 31.0974 14.7738 28.5374 12.4307C25.8579 9.97847 26.2167 10.3751 29.4445 6.13324C31.4102 3.54991 32.1961 1.97275 31.9506 1.29725C31.7165 0.653885 30.2707 0.823937 30.2707 0.823937L25.4591 0.853493C25.4591 0.853493 25.1024 0.805518 24.8379 0.961435C24.5794 1.11435 24.413 1.47073 24.413 1.47073C24.413 1.47073 23.6514 3.46981 22.6358 5.1699C20.4932 8.75726 19.6365 8.94659 19.2864 8.72385C18.4718 8.2047 18.6751 6.63825 18.6751 5.52542C18.6751 2.049 19.2099 0.599487 17.6338 0.224259C17.1108 0.0996115 16.7259 0.0173698 15.3883 0.00409121C13.6715 -0.0134708 12.2183 0.00923075 11.3955 0.406732C10.8482 0.671019 10.4259 1.25999 10.6831 1.29383C11.0011 1.33581 11.7213 1.4853 12.1032 1.99802C12.5963 2.65938 12.5789 4.14487 12.5789 4.14487C12.5789 4.14487 12.8621 8.23725 11.9173 8.7457C11.2687 9.09437 10.379 8.38246 8.46883 5.12792C7.49007 3.46081 6.75112 1.61808 6.75112 1.61808C6.75112 1.61808 6.60863 1.2737 6.3545 1.08951C6.04606 0.866342 5.61511 0.795239 5.61511 0.795239L1.04282 0.824793C1.04282 0.824793 0.356429 0.843642 0.104465 1.13791C-0.119697 1.39963 0.0866531 1.94105 0.0866531 1.94105C0.0866531 1.94105 3.66629 10.1986 7.71945 14.36C11.4359 18.1752 15.6563 17.9246 15.6563 17.9246Z" fill="white"/>
</svg>
