<svg id="Слой_1" data-name="Слой 1" xmlns="http://www.w3.org/2000/svg" width="869.33" height="880.32" viewBox="0 0 869.33 880.32">
  <defs>
    <style>
      .cls-1 {
        fill: #fff;
      }

      .cls-2 {
        isolation: isolate;
      }
    </style>
  </defs>
  <g>
    <g>
      <path class="cls-1" d="M80.17,401.86a9.76,9.76,0,0,1-9.56-11.81c33.44-151.69,181-325.74,412-333.6C716.25,48.51,885.17,216,926.06,389.9a9.78,9.78,0,0,1-9.54,12H884.87c-49,0-98.08-.35-147.12.27-9,.11-11-5-13.86-10.9C691.16,324.66,639.53,280,568.49,258.37,455.23,223.9,327.31,279.47,275.68,386c-6,12.37-12.73,16.4-26.32,16.2-56.35-.85-112.71-.36-169.07-.36Z" transform="translate(-63.25 -56.18)"/>
      <path class="cls-1" d="M68.9,602.15a9,9,0,0,1,8.65-11h.1c59.28,0,118.57.09,177.85-.16,7.06,0,10.7,1.66,14,8.67,32.69,70.23,85.65,117.51,160.67,138.64,11.13,3.13,15,7.82,14.86,19.59-.67,55.62-.52,111.25-.2,166.87.06,9.87-2.58,12.68-12.72,11.09C327.1,919.4,239.29,871,168.56,792.39A428.06,428.06,0,0,1,69.08,602.93Z" transform="translate(-63.25 -56.18)"/>
    </g>
    <g class="cls-2">
      <path class="cls-1" d="M63.25,456.83h78.36a25.91,25.91,0,0,1,15.74,5.44,18.18,18.18,0,0,1,5.88,7.42,27.33,27.33,0,0,1,1.59,10v16.59q0,6.95-5.41,12.93a22.62,22.62,0,0,1-9.45,6.33,42.2,42.2,0,0,1-13,1.7H94.72V546H63.25Zm31.47,41.73h37.35V480.42H94.72Z" transform="translate(-63.25 -56.18)"/>
      <path class="cls-1" d="M174.35,546V456.83h33.7v65.59h52.78V546Z" transform="translate(-63.25 -56.18)"/>
      <path class="cls-1" d="M270.68,482.83c.11-3,.26-5.3.48-6.94q1.26-7.62,5-11.5a22.48,22.48,0,0,1,9.06-5.72,33.19,33.19,0,0,1,10.88-1.84h48.17a28.58,28.58,0,0,1,9.93,1.57,22.55,22.55,0,0,1,8,5.39q6.19,5.86,6.2,13.36V546H337v-34.5H302.15V546H270.68ZM337,492.56V480.69H302.15v11.87Z" transform="translate(-63.25 -56.18)"/>
      <path class="cls-1" d="M416.13,456.83l22.09,35.73,19.08-35.73h37.19L453.8,514.19V546h-34V514.24l-40.85-57.41Z" transform="translate(-63.25 -56.18)"/>
      <path class="cls-1" d="M505,546V523.92H576.2V512.19H526.92a23.1,23.1,0,0,1-14.78-5Q505,501.56,505,493.78V471.69a15.39,15.39,0,0,1,6.2-10.36,17.23,17.23,0,0,1,7.55-3.68,55,55,0,0,1,10.58-.82H602v23.86H536.46v11.87h47.69c1.48,0,3.89.06,7.23.2a17.52,17.52,0,0,1,9,2.79q7.3,4.89,7.31,12.78V529a18.32,18.32,0,0,1-1.35,7.42,16.94,16.94,0,0,1-4.69,5.91,14.54,14.54,0,0,1-5.88,2.93,32,32,0,0,1-7.31.75H505Z" transform="translate(-63.25 -56.18)"/>
      <path class="cls-1" d="M617.37,456.83h97v22.09h-32V546H649.32V478.92h-32Z" transform="translate(-63.25 -56.18)"/>
      <path class="cls-1" d="M723.23,482.83q.15-4.49.48-6.94,1.26-7.62,5-11.5a22.62,22.62,0,0,1,9.06-5.72,33.3,33.3,0,0,1,10.89-1.84h48.17a28.58,28.58,0,0,1,9.93,1.57,22.55,22.55,0,0,1,8,5.39q6.19,5.86,6.2,13.36V546H789.51v-34.5H754.7V546H723.23Zm66.28,9.73V480.69H754.7v11.87Z" transform="translate(-63.25 -56.18)"/>
      <path class="cls-1" d="M932.58,546H901.1V510.83h-38V546H831.64V456.83h80.43a27.31,27.31,0,0,1,6.52.68,22.38,22.38,0,0,1,5.72,2.46q8.27,4.9,8.27,13.77v13.91a16.94,16.94,0,0,1-3.66,7.77,22.31,22.31,0,0,1-5.88,4.36c-.85.46-2.17,1.14-4,2.05,1.38.63,2.39,1.14,3,1.5a26.68,26.68,0,0,1,4.77,3.41q5.73,5.58,5.73,11.45Zm-69.47-53.73h38V480.42h-38Z" transform="translate(-63.25 -56.18)"/>
    </g>
    <path class="cls-1" d="M925.69,602.36a9,9,0,0,0-8.65-11h-.1c-59.28,0-118.57.09-177.85-.16-7.06,0-10.7,1.66-14,8.67-32.69,70.23-85.65,117.51-160.67,138.64-11.13,3.13-15,7.82-14.86,19.59.67,55.62.52,111.25.2,166.87-.06,9.87,2.58,12.68,12.72,11.09C667.5,919.62,755.31,871.2,826,792.61a428.06,428.06,0,0,0,99.48-189.46Z" transform="translate(-63.25 -56.18)"/>
  </g>
</svg>
